<svg width="103" height="100" viewBox="0 0 103 100" fill="none" xmlns="http://www.w3.org/2000/svg">
<g clip-path="url(#clip0_445_9299)">
<path opacity="0.3" d="M96.5413 67.5367C86.47 91.0075 59.8849 101.089 39.0551 99.3699C33.3677 98.9006 21.9246 97.9563 12.9897 89.5319C-4.16922 73.3533 -1.52656 39.5357 14.8994 19.6258C17.0147 17.0618 31.6567 -0.116705 54.4734 0.113249C71.1786 0.281606 82.9038 9.69017 84.3296 10.8623C86.1307 12.343 90.1031 15.8617 93.6833 21.4438C102.095 34.5598 102.835 52.8698 96.5413 67.5367Z" fill="url(#paint0_linear_445_9299)"/>
<path d="M27.9536 62.1862C27.9536 62.1862 28.261 49.3023 22.3091 45.854C16.3573 42.4057 5.04076 40.2498 4.61661 21.7497C4.36824 10.919 4.09948 6.18359 3.91933 4.11877C3.84905 3.31331 4.56694 2.66317 5.36383 2.81282C11.0007 3.87157 29.3125 8.22944 33.1517 20.691C37.703 35.4644 27.9536 62.1862 27.9536 62.1862Z" fill="url(#paint1_linear_445_9299)"/>
<path d="M9.72317 7.96014C15.9108 13.4622 23.0656 23.1999 26.8792 32.9375C27.3687 34.5423 28.8006 37.9552 29.4224 44.0188C29.9778 49.076 29.7017 54.42 29.0283 57.9574C28.9857 58.1811 28.7693 58.3279 28.545 58.2855C28.1593 58.2125 28.2106 57.7989 28.2141 57.812C28.9832 51.7682 28.664 44.2457 26.9017 37.4582C24.6502 29.124 19.6285 21.0436 14.4344 14.1904L13.8999 13.5155C9.8758 8.36289 9.02865 8.32492 9.40485 7.96575C9.49367 7.88093 9.63276 7.88016 9.72317 7.96014Z" fill="#37437D"/>
<path d="M37.5184 86.9573C38.3236 87.351 29.895 76.7833 27.2547 60.186C26.0105 52.3649 25.9943 42.5657 21.5258 38.7895C17.8068 35.6466 5.15167 37.6308 1.0109 38.3849C0.493472 38.4791 0.319279 39.1307 0.722048 39.468C2.70778 41.1307 6.95563 45.0527 8.06242 49.0053C9.52128 54.2151 14.4891 57.5289 18.9366 58.4257C23.384 59.3225 25.8581 60.1928 28.0248 67.2842C30.1914 74.3756 35.2303 85.8387 37.5184 86.9573Z" fill="url(#paint2_linear_445_9299)"/>
<path d="M6.83468 40.5861C12.1177 40.8067 17.7885 43.2095 20.6663 47.7167L20.938 48.1468C21.5653 49.1552 25.1207 56.3241 27.0953 62.2668C27.1199 62.3409 27.0797 62.4209 27.0054 62.4454C26.8792 62.4871 26.8159 62.3486 26.828 62.3608C25.4522 59.0037 23.4762 54.7473 21.9025 51.5644C20.2148 48.0912 19.0337 45.739 15.1842 43.486C10.8995 41.0596 6.80616 40.8098 6.81842 40.8123C6.75594 40.8059 6.71046 40.7503 6.71686 40.688C6.72293 40.628 6.77515 40.5838 6.83468 40.5861Z" fill="#EEEFFF"/>
<path d="M33.9051 88.3475C34.383 88.5987 31.2134 83.1594 30.9702 78.3673C30.727 73.5752 29.6427 65.3961 25.4979 60.5034C21.3532 55.6108 16.8142 55.1644 11.0949 59.6123C6.32889 63.3188 3.35591 65.1894 1.6124 65.5371C1.18067 65.6232 0.960376 66.1091 1.17044 66.4949C2.28871 68.5481 5.45034 73.2644 10.7588 72.9324C17.5302 72.5089 25.7366 68.12 28.2378 71.7812C30.739 75.4424 30.4178 77.491 30.4946 79.2261C30.5715 80.9613 30.7428 86.6851 33.9051 88.3475Z" fill="url(#paint3_linear_445_9299)"/>
<path d="M13.0163 65.487C15.0908 63.5042 18.4692 61.5557 21.4218 61.919C25.2634 62.536 27.8225 65.0937 29.2184 68.9012C29.7641 70.5179 29.9886 71.3809 30.3112 73.3626C30.337 73.5208 30.1028 73.5681 30.0639 73.4136C29.8291 72.4828 29.5966 71.5081 29.2487 70.5001C27.2239 63.9967 22.9015 63.1207 22.7333 62.9876C22.4066 63.0198 20.4255 61.5411 15.7249 64.063C14.8471 64.5394 13.9927 65.0831 13.1905 65.6829L13.186 65.6862C13.128 65.7296 13.0457 65.7179 13.0021 65.66C12.9619 65.6065 12.969 65.5321 13.0163 65.487Z" fill="#37437D"/>
<path d="M23.6737 0.392927C21.0655 0.619066 19.0657 2.79703 19.0583 5.40735C19.0129 21.3707 18.9379 76.4324 19.9815 95.9212C20.0921 97.9859 21.7898 99.6078 23.8634 99.6301C34.1196 99.7402 63.6213 99.9424 80.3696 98.8743C83.858 98.6518 86.5725 95.7712 86.5683 92.286C86.5479 75.532 86.2794 28.4137 83.9776 6.87655C83.7018 4.29606 81.6214 2.28187 79.0264 2.08027C67.8404 1.2113 38.1358 -0.861108 23.6737 0.392927Z" fill="url(#paint4_linear_445_9299)"/>
<path d="M23.1753 9.59088C22.9738 23.2461 22.4004 68.6713 23.4014 85.4369C23.5477 87.8875 25.4569 89.8221 27.8143 89.9041C37.5204 90.2413 62.41 90.8939 76.5926 89.338C79.1464 89.0579 81.0982 86.8508 81.1662 84.1784C81.521 70.2433 82.4793 27.935 81.5063 11.3568C81.3511 8.71211 79.3245 6.60188 76.7843 6.43121C66.2749 5.72517 39.2881 4.09689 27.2277 5.09826C24.9637 5.28621 23.2101 7.2268 23.1753 9.59088Z" fill="url(#paint5_linear_445_9299)"/>
<path d="M46.6263 2.76713C46.6346 3.14439 46.9363 3.44907 47.3146 3.46056C49.1822 3.51713 54.4434 3.67771 56.7949 3.7622C57.2585 3.77885 57.6129 3.35589 57.515 2.90368C57.507 2.88945 57.4468 2.30965 56.8529 2.26852C55.2622 2.15824 50.4632 1.86093 47.2918 2.04334C46.6406 2.08079 46.6052 2.81919 46.6263 2.76713Z" fill="#EEEFFF"/>
<path opacity="0.5" d="M50.006 87.3218H27.3971C26.9768 87.3218 26.6361 86.9821 26.6361 86.563V72.4693C26.6361 72.09 26.9445 71.7825 27.325 71.7825H49.9677C50.2848 71.7825 50.542 72.0388 50.542 72.3551V86.7874C50.542 87.0825 50.302 87.3218 50.006 87.3218Z" fill="white"/>
<path opacity="0.5" d="M76.9557 86.9285H54.3755C54.0223 86.9285 53.736 86.643 53.736 86.2909V72.0547C53.736 71.6871 54.0349 71.3892 54.4036 71.3892H77.0012C77.3551 71.3892 77.6419 71.6751 77.6419 72.0279V86.2443C77.6419 86.6222 77.3347 86.9285 76.9557 86.9285Z" fill="white"/>
<path opacity="0.5" d="M50.7487 69.4905H28.1399C27.7196 69.4905 27.3789 69.1508 27.3789 68.7317V54.638C27.3789 54.2587 27.6873 53.9512 28.0678 53.9512H50.7104C51.0276 53.9512 51.2848 54.2075 51.2848 54.5238V68.9561C51.2848 69.2512 51.0448 69.4905 50.7487 69.4905Z" fill="white"/>
<path opacity="0.5" d="M77.4964 69.3163H54.9162C54.563 69.3163 54.2768 69.0308 54.2768 68.6787V54.4425C54.2768 54.0749 54.5756 53.777 54.9443 53.777H77.542C77.8958 53.777 78.1826 54.063 78.1826 54.4157V68.6321C78.1826 69.01 77.8754 69.3163 77.4964 69.3163Z" fill="white"/>
<path opacity="0.5" d="M34.6943 50.4722C38.4756 50.4722 41.5409 47.4159 41.5409 43.6458C41.5409 39.8757 38.4756 36.8195 34.6943 36.8195C30.913 36.8195 27.8477 39.8757 27.8477 43.6458C27.8477 47.4159 30.913 50.4722 34.6943 50.4722Z" fill="white"/>
<path opacity="0.5" d="M53.0507 51.0311C56.832 51.0311 59.8974 47.9749 59.8974 44.2048C59.8974 40.4347 56.832 37.3784 53.0507 37.3784C49.2694 37.3784 46.2041 40.4347 46.2041 44.2048C46.2041 47.9749 49.2694 51.0311 53.0507 51.0311Z" fill="white"/>
<path opacity="0.5" d="M71.4668 51.1219C75.2481 51.1219 78.3134 48.0657 78.3134 44.2956C78.3134 40.5255 75.2481 37.4692 71.4668 37.4692C67.6855 37.4692 64.6201 40.5255 64.6201 44.2956C64.6201 48.0657 67.6855 51.1219 71.4668 51.1219Z" fill="white"/>
<path opacity="0.5" d="M79.2315 29.0915C79.2696 30.6352 78.0201 31.9046 76.4714 31.8955L29.949 31.6231C28.2744 31.6061 26.9429 30.2169 27.0019 28.5482L27.0004 12.044C27.0002 9.75561 28.903 7.92306 31.1967 8.00249L76.3854 9.56701C77.7754 9.61584 78.8625 10.7789 78.8135 12.1648L79.2315 29.0915Z" fill="white"/>
<path opacity="0.5" d="M71.3132 28.1859C73.336 26.1691 73.3359 22.8993 71.3132 20.8825C69.2904 18.8657 66.0108 18.8657 63.988 20.8825C61.9652 22.8992 61.9652 26.1691 63.988 28.1859C66.0108 30.2027 69.2904 30.2027 71.3132 28.1859Z" fill="white"/>
<path d="M67.774 27.6698C69.4434 27.6698 70.7968 26.3205 70.7968 24.656C70.7968 22.9915 69.4434 21.6422 67.774 21.6422C66.1046 21.6422 64.7513 22.9915 64.7513 24.656C64.7513 26.3205 66.1046 27.6698 67.774 27.6698Z" fill="white"/>
<path d="M85.3395 34.037C85.3395 34.037 86.8189 34.7544 87.0909 35.5786C87.3091 36.2399 88.9449 36.3252 89.1065 37.6257C89.19 38.2972 89.6884 38.835 90.3592 38.9375C92.0299 39.1928 94.6045 40.0578 95.0165 42.9499C95.3309 45.1574 94.2023 45.9944 93.0177 46.2842C92.1477 46.497 91.5695 47.3407 91.7455 48.2164C91.9143 49.0564 91.6626 50.0275 90.2031 50.7953C86.9324 52.5161 83.6661 46.7188 83.6661 46.7188L82.9967 36.5965L85.3395 34.037Z" fill="url(#paint6_linear_445_9299)"/>
<path d="M69.9436 28.6987C69.9436 28.6987 74.1521 40.1376 81.3232 43.7127C81.3232 43.7127 78.9364 47.5955 77.6908 47.831C77.6908 47.831 70.0303 38.0554 69.2493 30.0466L69.9436 28.6987Z" fill="url(#paint7_linear_445_9299)"/>
<path d="M98.7834 97.5072L98.995 99.242C99.0352 99.5711 99.2951 99.8313 99.6254 99.8689C100.183 99.9324 101.078 99.9975 101.954 99.9052C102.338 99.8647 102.588 99.4766 102.471 99.1093C102.257 98.4396 101.867 97.4344 101.304 96.8428H99.3736C99.0168 96.8428 98.7403 97.154 98.7834 97.5072Z" fill="url(#paint8_linear_445_9299)"/>
<path d="M83.666 77.1855L83.3402 79.0962C83.3402 79.0962 84.4312 90.1139 84.6253 94.521C84.6557 95.212 84.4764 95.8948 84.1127 96.4837L82.2157 99.5551L87.0369 96.7187L87.1328 96.1321L86.3436 95.0502L87.3774 82.7076C87.4381 81.9826 87.2881 81.2554 86.9451 80.6131L85.9479 78.7453L83.666 77.1855Z" fill="url(#paint9_linear_445_9299)"/>
<path d="M81.8982 100H83.4367C83.7247 100 83.9963 99.8682 84.1719 99.6407C84.6515 99.0193 85.6453 97.807 86.1204 97.7754C86.7601 97.7328 86.6783 100 86.6783 100H87.0368L87.491 97.1827C87.6053 96.4738 87.2517 95.7715 86.6133 95.4395C86.6133 95.4395 86.467 96.5176 85.6742 96.9945C84.8813 97.4714 82.4478 99.1793 82.4478 99.1793C82.4478 99.1793 82.1497 99.1369 81.8225 99.1958C81.3371 99.2833 81.4049 100 81.8982 100Z" fill="url(#paint10_linear_445_9299)"/>
<path d="M90.2694 78.093C90.2694 78.093 96.6606 90.1805 97.6765 92.9402C98.6924 95.7 99.0483 98.0022 99.062 98.2202C99.0833 98.5609 99.5082 98.8876 100.68 98.8876C101.284 98.8876 101.58 98.646 101.725 98.4122C101.849 98.2127 101.855 97.963 101.751 97.7527C101.381 97.0067 100.208 94.6228 99.7737 93.5415C99.2549 92.2506 98.139 86.4002 97.527 84.3661C96.915 82.332 96.2232 80.1255 93.5581 78.093C93.5581 78.093 91.7285 76.3064 90.2694 78.093Z" fill="url(#paint11_linear_445_9299)"/>
<path d="M86.232 58.2872C84.5834 51.322 88.7599 47.3826 88.7599 47.3826C86.1246 44.8605 81.3232 43.7129 81.3232 43.7129C81.3232 43.7129 76.7416 47.0525 77.2851 49.6665C77.6037 51.1986 80.5056 58.8433 80.5056 58.8433C80.5056 58.8433 83.1889 60.1095 86.232 58.2872Z" fill="white"/>
<path d="M89.8873 61.7354C89.2163 59.7201 86.232 58.2871 86.232 58.2871C83.1888 60.1094 80.5055 58.8433 80.5055 58.8433C80.5055 58.8433 79.9038 61.1366 80.3191 63.2679C80.7344 65.3991 83.3402 79.0962 83.3402 79.0962C87.4461 79.9257 93.761 78.2616 93.761 78.2616C91.1457 73.6321 90.5582 63.7506 89.8873 61.7354Z" fill="url(#paint12_linear_445_9299)"/>
<path d="M84.3184 39.11L85.6587 45.1128C85.7871 45.6415 85.3036 45.555 84.7675 45.4542C83.8895 45.2892 82.7578 44.9492 82.3795 44.268C82.341 44.1987 82.3217 44.1203 82.3109 44.0418L81.735 39.8793C81.6893 39.5491 81.8684 39.2286 82.174 39.0934L83.2852 38.6021C83.7131 38.4131 84.2083 38.6565 84.3184 39.11Z" fill="url(#paint13_linear_445_9299)"/>
<path d="M82.7457 33.3945C82.7457 33.3945 81.1583 34.0628 80.0789 36.3499C78.9995 38.637 79.8056 39.693 80.8181 39.838C81.8305 39.983 83.3447 39.9609 84.9462 38.4834C86.5479 37.006 84.8094 32.6023 82.7457 33.3945Z" fill="url(#paint14_linear_445_9299)"/>
<path d="M83.8697 37.2624C83.8697 37.2624 85.0673 33.9163 82.0919 33.8767L81.3917 34.3646C81.3917 34.3646 80.3 32.5094 82.0919 31.6238C83.8837 30.7382 85.9809 31.4697 86.7435 33.8767C87.506 36.2836 87.6362 37.8949 86.3676 39.0465C85.099 40.198 84.5761 38.8923 84.5761 38.8923C84.5761 38.8923 85.2669 37.8152 84.9857 37.2389C84.7045 36.6626 84.0558 37.3581 84.0558 37.3581L83.8697 37.2624Z" fill="url(#paint15_linear_445_9299)"/>
<path d="M84.2034 37.6351C84.2034 37.6351 84.8089 35.9115 85.6167 36.5979C86.4246 37.2844 84.9602 38.1901 84.3869 38.4835L84.2034 37.6351Z" fill="url(#paint16_linear_445_9299)"/>
<path d="M69.5396 30.7808C69.4754 30.9843 70.2189 31.2942 70.6567 30.4619C70.6721 30.0629 70.9154 28.3539 70.6763 28.0288C69.4029 26.298 66.9341 24.1282 66.9341 24.1282C66.5169 24.5387 66.8606 24.9419 66.8606 24.9419L68.0582 26.1858C67.8077 26.6372 67.5022 27.0182 67.359 27.5641C67.2505 27.9775 67.3169 28.4193 67.5264 28.7956C67.7366 29.1732 68.0234 29.6641 68.2946 30.0482C68.8078 30.7753 69.5396 30.7808 69.5396 30.7808Z" fill="url(#paint17_linear_445_9299)"/>
<path d="M68.9333 29.9298C68.8433 29.4287 68.5681 28.0604 68.3777 27.7516C68.2453 27.5368 68.2019 27.3576 68.2452 27.2038C68.2815 27.0749 68.3751 26.9734 68.5313 26.8939L68.5975 26.8601L69.7678 27.8493L70.1207 28.7951L69.9116 28.8726L69.579 27.9815L68.5701 27.1286C68.5104 27.1691 68.4742 27.2137 68.46 27.2638C68.4349 27.3534 68.4711 27.4782 68.5678 27.6351C68.8191 28.0428 69.1394 29.8153 69.1529 29.8906L68.9333 29.9298Z" fill="url(#paint18_linear_445_9299)"/>
<path d="M88.7599 47.3826C88.7599 47.3826 98.115 54.0558 89.9563 61.068C89.9563 61.068 89.6452 61.4189 89.0332 61.6014C88.7243 61.6934 87.8103 62.3829 87.3469 62.7424C87.1979 62.8579 86.9827 62.8186 86.8825 62.6591C86.804 62.5341 86.7948 62.3778 86.8581 62.2445L88.0163 59.8028C88.3379 59.5035 88.8301 59.4823 89.1765 59.7527C89.3975 59.9252 89.7212 59.853 89.8448 59.6018C90.4755 58.3211 91.6664 54.5544 86.7921 50.2981C86.6088 50.1381 86.5625 49.8735 86.675 49.658C87.0174 49.002 87.8006 47.6995 88.7599 47.3826Z" fill="url(#paint19_linear_445_9299)"/>
</g>
<defs>
<linearGradient id="paint0_linear_445_9299" x1="106.756" y1="112.486" x2="33.6942" y2="33.3921" gradientUnits="userSpaceOnUse">
<stop stop-color="#F26CF9"/>
<stop offset="1" stop-color="#EEEFFF"/>
</linearGradient>
<linearGradient id="paint1_linear_445_9299" x1="4.3254" y1="32.6629" x2="34.3977" y2="32.2315" gradientUnits="userSpaceOnUse">
<stop offset="0.180068" stop-color="#F26CF9"/>
<stop offset="1" stop-color="#460F48"/>
</linearGradient>
<linearGradient id="paint2_linear_445_9299" x1="4" y1="56" x2="32.0985" y2="60.046" gradientUnits="userSpaceOnUse">
<stop stop-color="#262C4A"/>
<stop offset="1" stop-color="#1E233B"/>
</linearGradient>
<linearGradient id="paint3_linear_445_9299" x1="1.09004" y1="72.4466" x2="33.9541" y2="72.4466" gradientUnits="userSpaceOnUse">
<stop offset="0.201406" stop-color="#F26CF9"/>
<stop offset="0.821226" stop-color="#7B1D80"/>
</linearGradient>
<linearGradient id="paint4_linear_445_9299" x1="18.8172" y1="50.3976" x2="86.0747" y2="48.9199" gradientUnits="userSpaceOnUse">
<stop stop-color="#3B4164"/>
<stop offset="1" stop-color="#1E233B"/>
</linearGradient>
<linearGradient id="paint5_linear_445_9299" x1="86.5123" y1="-6.92868" x2="5.73073" y2="120.601" gradientUnits="userSpaceOnUse">
<stop stop-color="#FCD3FE"/>
<stop offset="1" stop-color="#C256C7"/>
</linearGradient>
<linearGradient id="paint6_linear_445_9299" x1="82.7376" y1="28.1333" x2="87.1033" y2="39.1173" gradientUnits="userSpaceOnUse">
<stop stop-color="#F26CF9"/>
<stop offset="1" stop-color="#262C4A"/>
</linearGradient>
<linearGradient id="paint7_linear_445_9299" x1="73.684" y1="34.474" x2="81.7508" y2="52.8823" gradientUnits="userSpaceOnUse">
<stop stop-color="#F9B776"/>
<stop offset="1" stop-color="#F47960"/>
</linearGradient>
<linearGradient id="paint8_linear_445_9299" x1="98.779" y1="98.397" x2="102.5" y2="98.397" gradientUnits="userSpaceOnUse">
<stop stop-color="#3B4164"/>
<stop offset="1" stop-color="#1E233B"/>
</linearGradient>
<linearGradient id="paint9_linear_445_9299" x1="83.0557" y1="113.027" x2="88.3791" y2="50.6254" gradientUnits="userSpaceOnUse">
<stop stop-color="#F9B776"/>
<stop offset="1" stop-color="#F47960"/>
</linearGradient>
<linearGradient id="paint10_linear_445_9299" x1="81.4914" y1="97.7197" x2="87.5123" y2="97.7197" gradientUnits="userSpaceOnUse">
<stop stop-color="#3B4164"/>
<stop offset="1" stop-color="#1E233B"/>
</linearGradient>
<linearGradient id="paint11_linear_445_9299" x1="93.8273" y1="113.956" x2="99.152" y2="51.5374" gradientUnits="userSpaceOnUse">
<stop stop-color="#F9B776"/>
<stop offset="1" stop-color="#F47960"/>
</linearGradient>
<linearGradient id="paint12_linear_445_9299" x1="97.9372" y1="51.3174" x2="84.6064" y2="72.71" gradientUnits="userSpaceOnUse">
<stop stop-color="#F26CF9"/>
<stop offset="1" stop-color="#3B4164"/>
</linearGradient>
<linearGradient id="paint13_linear_445_9299" x1="82.8865" y1="27.6258" x2="84.1656" y2="51.0837" gradientUnits="userSpaceOnUse">
<stop stop-color="#F9B776"/>
<stop offset="1" stop-color="#F47960"/>
</linearGradient>
<linearGradient id="paint14_linear_445_9299" x1="79.9295" y1="42.0606" x2="88.6665" y2="26.4657" gradientUnits="userSpaceOnUse">
<stop stop-color="#F9B776"/>
<stop offset="1" stop-color="#FCD3FE"/>
</linearGradient>
<linearGradient id="paint15_linear_445_9299" x1="81.8169" y1="28.4992" x2="86.1827" y2="39.4832" gradientUnits="userSpaceOnUse">
<stop stop-color="#F26CF9"/>
<stop offset="1" stop-color="#1E233B"/>
</linearGradient>
<linearGradient id="paint16_linear_445_9299" x1="81.7977" y1="43.1073" x2="90.5346" y2="27.5123" gradientUnits="userSpaceOnUse">
<stop stop-color="#F9B776"/>
<stop offset="1" stop-color="#F47960"/>
</linearGradient>
<linearGradient id="paint17_linear_445_9299" x1="72.082" y1="35.176" x2="80.1489" y2="53.5844" gradientUnits="userSpaceOnUse">
<stop stop-color="#F9B776"/>
<stop offset="1" stop-color="#F47960"/>
</linearGradient>
<linearGradient id="paint18_linear_445_9299" x1="76.3311" y1="13.3364" x2="63.3433" y2="40.1229" gradientUnits="userSpaceOnUse">
<stop stop-color="#F9B776"/>
<stop offset="0.5821" stop-color="#F69369"/>
<stop offset="1" stop-color="#F47960"/>
</linearGradient>
<linearGradient id="paint19_linear_445_9299" x1="86.6142" y1="55.0957" x2="93.2962" y2="55.0957" gradientUnits="userSpaceOnUse">
<stop stop-color="#F9B776"/>
<stop offset="1" stop-color="#F47960"/>
</linearGradient>
<clipPath id="clip0_445_9299">
<rect width="102" height="100" fill="white" transform="translate(0.5)"/>
</clipPath>
</defs>
</svg>
