<svg width="30" height="30" viewBox="0 0 30 30" fill="none" xmlns="http://www.w3.org/2000/svg">
<path d="M13.875 15C13.875 15.6213 14.3787 16.125 15 16.125C15.6213 16.125 16.125 15.6213 16.125 15C16.125 14.3787 15.6213 13.875 15 13.875C14.3787 13.875 13.875 14.3787 13.875 15Z" fill="#434345"/>
<path d="M13.875 21C13.875 21.6213 14.3787 22.125 15 22.125C15.6213 22.125 16.125 21.6213 16.125 21C16.125 20.3787 15.6213 19.875 15 19.875C14.3787 19.875 13.875 20.3787 13.875 21Z" fill="#434345"/>
<path d="M13.875 9C13.875 9.62132 14.3787 10.125 15 10.125C15.6213 10.125 16.125 9.62132 16.125 9C16.125 8.37868 15.6213 7.875 15 7.875C14.3787 7.875 13.875 8.37868 13.875 9Z" fill="#434345"/>
</svg>
