<svg width="44" height="44" viewBox="0 0 44 44" fill="none" xmlns="http://www.w3.org/2000/svg">
<rect width="44" height="44" rx="22" fill="#F26CF9"/>
<path d="M30.9375 19.9375C31.1198 19.9375 31.2947 19.8651 31.4236 19.7361C31.5526 19.6072 31.625 19.4323 31.625 19.25V16.5C31.625 16.1353 31.4801 15.7856 31.2223 15.5277C30.9644 15.2699 30.6147 15.125 30.25 15.125H13.75C13.3853 15.125 13.0356 15.2699 12.7777 15.5277C12.5199 15.7856 12.375 16.1353 12.375 16.5V19.25C12.375 19.4323 12.4474 19.6072 12.5764 19.7361C12.7053 19.8651 12.8802 19.9375 13.0625 19.9375C13.6095 19.9375 14.1341 20.1548 14.5209 20.5416C14.9077 20.9284 15.125 21.453 15.125 22C15.125 22.547 14.9077 23.0716 14.5209 23.4584C14.1341 23.8452 13.6095 24.0625 13.0625 24.0625C12.8802 24.0625 12.7053 24.1349 12.5764 24.2639C12.4474 24.3928 12.375 24.5677 12.375 24.75V27.5C12.375 27.8647 12.5199 28.2144 12.7777 28.4723C13.0356 28.7301 13.3853 28.875 13.75 28.875H30.25C30.6147 28.875 30.9644 28.7301 31.2223 28.4723C31.4801 28.2144 31.625 27.8647 31.625 27.5V24.75C31.625 24.5677 31.5526 24.3928 31.4236 24.2639C31.2947 24.1349 31.1198 24.0625 30.9375 24.0625C30.3905 24.0625 29.8659 23.8452 29.4791 23.4584C29.0923 23.0716 28.875 22.547 28.875 22C28.875 21.453 29.0923 20.9284 29.4791 20.5416C29.8659 20.1548 30.3905 19.9375 30.9375 19.9375ZM13.75 25.3687C14.5271 25.211 15.2257 24.7894 15.7275 24.1754C16.2293 23.5615 16.5034 22.7929 16.5034 22C16.5034 21.2071 16.2293 20.4385 15.7275 19.8246C15.2257 19.2106 14.5271 18.789 13.75 18.6313V16.5H18.5625V27.5H13.75V25.3687ZM30.25 25.3687V27.5H19.9375V16.5H30.25V18.6313C29.4729 18.789 28.7743 19.2106 28.2725 19.8246C27.7707 20.4385 27.4966 21.2071 27.4966 22C27.4966 22.7929 27.7707 23.5615 28.2725 24.1754C28.7743 24.7894 29.4729 25.211 30.25 25.3687Z" fill="white"/>
</svg>
