<svg width="45" height="44" viewBox="0 0 45 44" fill="none" xmlns="http://www.w3.org/2000/svg">
<rect x="0.333496" width="44" height="44" rx="22" fill="#F26CF9"/>
<path fill-rule="evenodd" clip-rule="evenodd" d="M22.3335 16.5C22.7132 16.5 23.021 16.8078 23.021 17.1875V18.5625C23.021 18.9422 22.7132 19.25 22.3335 19.25C21.9538 19.25 21.646 18.9422 21.646 18.5625V17.1875C21.646 16.8078 21.9538 16.5 22.3335 16.5Z" fill="white"/>
<path fill-rule="evenodd" clip-rule="evenodd" d="M22.3335 24.75C22.7132 24.75 23.021 25.0578 23.021 25.4375V26.8125C23.021 27.1922 22.7132 27.5 22.3335 27.5C21.9538 27.5 21.646 27.1922 21.646 26.8125V25.4375C21.646 25.0578 21.9538 24.75 22.3335 24.75Z" fill="white"/>
<path fill-rule="evenodd" clip-rule="evenodd" d="M22.3335 14.4375C18.1568 14.4375 14.771 17.8233 14.771 22C14.771 26.1767 18.1568 29.5625 22.3335 29.5625C26.5101 29.5625 29.896 26.1767 29.896 22C29.896 17.8233 26.5101 14.4375 22.3335 14.4375ZM13.396 22C13.396 17.064 17.3975 13.0625 22.3335 13.0625C27.2695 13.0625 31.271 17.064 31.271 22C31.271 26.936 27.2695 30.9375 22.3335 30.9375C17.3975 30.9375 13.396 26.936 13.396 22Z" fill="white"/>
<path fill-rule="evenodd" clip-rule="evenodd" d="M21.3022 19.25C21.0287 19.25 20.7664 19.3586 20.573 19.552C20.3796 19.7454 20.271 20.0077 20.271 20.2812C20.271 20.5548 20.3796 20.8171 20.573 21.0105C20.7664 21.2039 21.0287 21.3125 21.3022 21.3125H23.3647C24.0029 21.3125 24.615 21.566 25.0662 22.0173C25.5175 22.4685 25.771 23.0806 25.771 23.7188C25.771 24.3569 25.5175 24.969 25.0662 25.4202C24.615 25.8715 24.0029 26.125 23.3647 26.125H20.271C19.8913 26.125 19.5835 25.8172 19.5835 25.4375C19.5835 25.0578 19.8913 24.75 20.271 24.75H23.3647C23.6383 24.75 23.9006 24.6414 24.094 24.448C24.2873 24.2546 24.396 23.9923 24.396 23.7188C24.396 23.4452 24.2873 23.1829 24.094 22.9895C23.9006 22.7961 23.6383 22.6875 23.3647 22.6875H21.3022C20.6641 22.6875 20.052 22.434 19.6008 21.9827C19.1495 21.5315 18.896 20.9194 18.896 20.2812C18.896 19.6431 19.1495 19.031 19.6008 18.5798C20.052 18.1285 20.6641 17.875 21.3022 17.875H24.396C24.7757 17.875 25.0835 18.1828 25.0835 18.5625C25.0835 18.9422 24.7757 19.25 24.396 19.25H21.3022Z" fill="white"/>
</svg>
