<svg width="45" height="44" viewBox="0 0 45 44" fill="none" xmlns="http://www.w3.org/2000/svg">
<rect x="0.666504" width="44" height="44" rx="22" fill="#F26CF9"/>
<path d="M26.5904 19.4511C26.6543 19.5149 26.705 19.5908 26.7396 19.6742C26.7742 19.7577 26.792 19.8472 26.792 19.9375C26.792 20.0278 26.7742 20.1173 26.7396 20.2008C26.705 20.2842 26.6543 20.3601 26.5904 20.4239L21.7779 25.2364C21.7141 25.3003 21.6382 25.351 21.5548 25.3856C21.4713 25.4202 21.3819 25.438 21.2915 25.438C21.2012 25.438 21.1117 25.4202 21.0282 25.3856C20.9448 25.351 20.869 25.3003 20.8051 25.2364L18.7426 23.1739C18.6136 23.0449 18.5411 22.8699 18.5411 22.6875C18.5411 22.5051 18.6136 22.3301 18.7426 22.2011C18.8716 22.0721 19.0466 21.9996 19.229 21.9996C19.4114 21.9996 19.5864 22.0721 19.7154 22.2011L21.2915 23.778L25.6176 19.4511C25.6815 19.3872 25.7573 19.3365 25.8407 19.3019C25.9242 19.2673 26.0137 19.2495 26.104 19.2495C26.1944 19.2495 26.2838 19.2673 26.3673 19.3019C26.4507 19.3365 26.5266 19.3872 26.5904 19.4511ZM31.604 22C31.604 23.7677 31.0798 25.4956 30.0978 26.9654C29.1157 28.4352 27.7199 29.5807 26.0867 30.2572C24.4536 30.9336 22.6566 31.1106 20.9229 30.7658C19.1892 30.4209 17.5967 29.5697 16.3467 28.3198C15.0968 27.0698 14.2456 25.4773 13.9007 23.7436C13.5559 22.0099 13.7329 20.2129 14.4093 18.5798C15.0858 16.9467 16.2313 15.5508 17.7011 14.5687C19.1709 13.5867 20.8988 13.0625 22.6665 13.0625C25.0361 13.065 27.3079 14.0074 28.9835 15.683C30.6591 17.3586 31.6015 19.6304 31.604 22ZM30.229 22C30.229 20.5043 29.7855 19.0421 28.9545 17.7985C28.1235 16.5549 26.9424 15.5855 25.5606 15.0132C24.1787 14.4408 22.6581 14.291 21.1911 14.5828C19.7242 14.8746 18.3766 15.5949 17.319 16.6525C16.2614 17.7101 15.5411 19.0576 15.2493 20.5246C14.9575 21.9916 15.1073 23.5122 15.6797 24.894C16.2521 26.2759 17.2214 27.457 18.465 28.288C19.7087 29.119 21.1708 29.5625 22.6665 29.5625C24.6715 29.5602 26.5937 28.7627 28.0115 27.345C29.4292 25.9272 30.2267 24.005 30.229 22Z" fill="white"/>
</svg>
